<svg version="1.1" viewBox="0.0 0.0 960.0 720.0" fill="none" stroke="none" stroke-linecap="square" stroke-miterlimit="10" xmlns:xlink="http://www.w3.org/1999/xlink" xmlns="http://www.w3.org/2000/svg"><clipPath id="p.0"><path d="m0 0l960.0 0l0 720.0l-960.0 0l0 -720.0z" clip-rule="nonzero"/></clipPath><g clip-path="url(#p.0)"><path fill="#000000" fill-opacity="0.0" d="m0 0l960.0 0l0 720.0l-960.0 0z" fill-rule="evenodd"/><path fill="#000000" fill-opacity="0.0" d="m0 164.47244l960.0 0l0 391.05515l-960.0 0z" fill-rule="evenodd"/><path fill="#000000" d="m65.421875 385.68494l-51.203125 -76.8125l45.6875 0q5.0625 0 7.4375 1.3125q2.375 1.296875 4.21875 4.359375l28.359375 47.078125q0.921875 -2.765625 2.296875 -5.375q1.390625 -2.609375 3.078125 -5.515625l20.234375 -35.421875q1.984375 -3.53125 4.4375 -4.984375q2.453125 -1.453125 5.984375 -1.453125l43.546875 0l-51.203125 74.671875l53.34375 84.328125l-45.6875 0q-5.0625 0 -8.125 -2.453125q-3.0625 -2.453125 -5.0625 -5.828125l-28.359375 -48.75q-0.765625 2.59375 -1.84375 4.90625q-1.078125 2.296875 -2.296875 4.28125l-23.3125 39.5625q-1.828125 3.21875 -4.90625 5.75q-3.0625 2.53125 -7.65625 2.53125l-42.328125 0l53.359375 -82.1875zm202.69849 123.4375q-2.140625 4.75 -5.21875 6.96875q-3.0625 2.21875 -9.79689 2.21875l-35.578125 0l30.671875 -64.390625l-63.484375 -145.04688l42.015625 0q5.515625 0 8.578125 2.453125q3.078125 2.453125 4.296875 5.828125l26.062515 68.53125q3.6875 9.515625 5.984375 19.015625q1.53125 -4.90625 3.375 -9.65625q1.84375 -4.75 3.53125 -9.65625l23.609375 -68.234375q1.21875 -3.53125 4.8125 -5.90625q3.609375 -2.375 7.75 -2.375l38.34375 0l-84.953125 200.25zm153.64343 -270.78125l0 229.53125l-47.53125 0l0 -229.53125l47.53125 0zm109.16272 68.078125q18.09375 0 32.96875 5.671875q14.875 5.671875 25.53125 16.25q10.65625 10.578125 16.546875 25.6875q5.90625 15.09375 5.90625 33.953125q0 19.015625 -5.90625 34.28125q-5.890625 15.25 -16.546875 25.90625q-10.65625 10.65625 -25.53125 16.40625q-14.875 5.75 -32.96875 5.75q-18.25 0 -33.203156 -5.75q-14.9375 -5.75 -25.75 -16.40625q-10.8125 -10.65625 -16.71875 -25.90625q-5.890625 -15.265625 -5.890625 -34.28125q0 -18.859375 5.890625 -33.953125q5.90625 -15.109375 16.71875 -25.6875q10.8125 -10.578125 25.75 -16.25q14.9531555 -5.671875 33.203156 -5.671875zm0 128.64062q16.40625 0 24.140625 -11.578125q7.75 -11.578125 7.75 -35.1875q0 -23.609375 -7.75 -35.109375q-7.734375 -11.5 -24.140625 -11.5q-16.859375 0 -24.68753 11.5q-7.8125 11.5 -7.8125 35.109375q0 23.609375 7.8125 35.1875q7.8281555 11.578125 24.68753 11.578125zm314.93878 32.8125l-40.171875 0q-6.75 0 -11.125 -3.140625q-4.359375 -3.140625 -6.046875 -8.046875l-13.1875 -38.953125l-84.9375 0l-13.1875 38.953125q-1.53125 4.28125 -5.984375 7.734375q-4.453125 3.453125 -10.890625 3.453125l-40.46875 0l86.46875 -223.40625l53.046875 0l86.484375 223.40625zm-143.51562 -85.40625l61.03125 0l-20.546875 -61.171875q-2.0 -5.828125 -4.6875 -13.71875q-2.671875 -7.90625 -5.28125 -17.109375q-2.453125 9.359375 -5.0625 17.34375q-2.609375 7.96875 -4.90625 13.78125l-20.546875 60.875zm218.33386 85.40625l-52.125 0l0 -223.40625l52.125 0l0 223.40625z" fill-rule="nonzero"/></g></svg>